<?xml version="1.0" encoding="UTF-8"?>
<svg id="_Слой_2" data-name="Слой 2" xmlns="http://www.w3.org/2000/svg" viewBox="0 0 199.16 181.99">
  <defs>
    <style>
      .cls-1 {
        fill: #d16e5b;
      }

      .cls-1, .cls-2, .cls-3, .cls-4, .cls-5, .cls-6, .cls-7, .cls-8, .cls-9, .cls-10, .cls-11 {
        stroke-width: 0px;
      }

      .cls-1, .cls-2, .cls-3, .cls-4, .cls-5, .cls-6, .cls-8, .cls-10, .cls-11 {
        fill-rule: evenodd;
      }

      .cls-2 {
        fill: #d54c20;
      }

      .cls-3 {
        fill: #bf7b46;
      }

      .cls-4 {
        fill: #b82316;
      }

      .cls-5 {
        fill: #eaaa7d;
      }

      .cls-6, .cls-9 {
        fill: #433a58;
      }

      .cls-7, .cls-8 {
        fill: #fff;
      }

      .cls-10 {
        fill: #e8a327;
      }

      .cls-11 {
        fill: #75a8bd;
      }
    </style>
  </defs>
  <g id="OBJECTS">
    <g>
      <circle class="cls-7" cx="117.29" cy="100.12" r="81.87" transform="translate(-16.05 22.64) rotate(-10.32)"/>
      <g>
        <path class="cls-6" d="M96.4,29.31s-11.25-3.84-6.9-11.76c4.35-7.93,9.72-2.17,9.72-2.17,0,0-4.35-10.74,4.09-13.93,8.44-3.2,2.3,9.84,2.3,9.84,0,0,3.32-10.61,26.85-11.25,23.52-.64,29.36,8.59,28.01,25.5-1.35,16.91-.34,21.47-.34,21.47,0,0,7.63-6.97,12.08-.19,4.45,6.78-2.33,11.56-2.33,11.56,0,0,13.67-3.11,15.23,5.67,1.56,8.78-8.28,8.61-8.28,8.61,9.14,6.12-7.83,20.06-16.18,7.73-4.39,14.76-35.22,2.85-35.22,2.62,0,0,3.93,9.57-10.88,8.09-14.81-1.48-27.5-11.76-26.47-20.14,0,0-6.32-8.82-1.62-14.12,4.71-5.29,8.53-3.38,8.53-3.38,0,0-3.74-3.93,5.93-4.51,0,0-3.09-10.54-4.51-19.64Z"/>
        <path class="cls-3" d="M108.64,90.03s-51.2-15.12-76.15-11.77c-24.94,3.34-19.8,28.29-6.69,30.09,0,0,54.61-2.99,72.61,12.19,18,15.17,10.22-30.5,10.22-30.5Z"/>
        <path class="cls-5" d="M144,51.99s-2.05,15.47-1.28,33.75h-18.92s-3.2-11.25-1.02-23.01c2.17-11.76,21.22-10.74,21.22-10.74Z"/>
        <path class="cls-1" d="M144,51.99s-.05.35-.12,1.01c-1.06-.31-2.43-.64-2.43-.25,0,.63-2.61,11.96-2.61,11.96,0,0-5.23,11.35-16.33,14.25-.55-4.31-.85-10.2.26-16.23,2.17-11.76,21.22-10.74,21.22-10.74Z"/>
        <path class="cls-5" d="M101.83,30.91s-1.36,18.95,1.33,27.9c2.68,8.95,8.31,14.19,19.81,13.29,10.87-1.26,17.05-5.13,19.98-16.56,0,0,11.3,3.38,13.04-6.67,1.74-10.05-4.06-15.56-13.15-8.12,0,0-3.13-11.74-2.21-20.31,0,0-10.84,4.71-12.69-.34,0,0-3.61,6.56-9.92,3.45,0,0-3.08,8.84-16.19,7.36Z"/>
        <path class="cls-10" d="M120.4,88.98s-1.22-6.34,0-7.34c1.22-1,25.01-1.11,26.35-.67,1.33.45,1,9.67,1,9.67,0,0,27.29-11.73,25.52,18.43-.99,16.81-5.25,40.4-8.84,57.98-11.08,7.82-24.19,12.95-38.38,14.46h-17.53c-9.31-.99-18.15-3.54-26.26-7.39-.45-16.83.06-42.62,5.99-61.06,3.27-10.16,14.39-41.64,32.15-24.1Z"/>
        <path class="cls-3" d="M171.61,96.27c1.32,3.06,1.99,7.21,1.66,12.82-.34,5.84-1.08,12.5-2.05,19.44-20.55,14.75-30.31,33.85-34.69,51.19-3.41.82-6.91,1.43-10.48,1.81h-17.53c-8.2-.87-16.04-2.96-23.34-6.07-1.72-13.33-3.14-32.9,0-49.88,13.17,24.21,51.52-9.67,51.52-9.67l-13.52,32.88,48.44-52.52Z"/>
        <path class="cls-2" d="M30.14,86.71s30.23-2.17,31.59-21.1c1.36-18.93.67-35.82.67-35.82,0,0,1.79-12.66-10.74-12.92-12.53-.26-14.58,11.64-15.35,19.57-.77,7.93-6.28,33.51-13.14,44.66-6.86,11.16-11.13,19.37-14.8,23.24-3.68,3.87-1.74,7.93,2.9,4.16,4.64-3.77,5.03-5.8,5.03-5.8,0,0-3.97,8.32-6.77,13.83-2.8,5.51.58,7.16,2.71,4.93,2.13-2.22,7.54-13.06,7.54-13.06,0,0-3.98,11.31-3.56,15.26.42,3.95,3.62.59,4.79-3.2,1.18-3.78,3.53-8.24,3.53-8.24,0,0-.42,6.64-1.18,9.42-.76,2.78,3.7,1.85,4.63-4.12.93-5.97-.99-26.54,2.15-30.81Z"/>
        <path class="cls-4" d="M30.14,86.71s30.23-2.17,31.59-21.1c.37-5.12.59-10.08.71-14.61-3.29,2.36-4.92-3.31-4.92-3.31-6.86,10.49-7.06-.27-7.06-.27-8.03,8.61-13.21,5.8-16.3,1.33-2.36,10.8-6.37,24.84-10.99,32.35-1.89,3.08-3.59,5.93-5.13,8.53l10.29,7.05c.17-4.52.64-8.37,1.81-9.96Z"/>
        <path class="cls-6" d="M57.72,19.09s6.51-4.68,12.65,0c6.14,4.68,1.68,14.12,1.68,14.12,0,0-2.27-4.17-5.71-2.34-3.44,1.83-7.97,3.29-9.22.07-1.24-3.22.59-11.85.59-11.85Z"/>
        <path class="cls-2" d="M45.06,14.41s2.49-9.02-1.38-9.79c-3.87-.77-2.54,7.19-2.54,7.19,0,0-4.87-7.36-7.69-5.48s3.37,7.96,3.37,7.96c0,0-5.03-3.32-7.08-1.71-2.05,1.6,3.04,8.79,13.22,8.9,10.18.11,2.1-7.08,2.1-7.08Z"/>
        <path class="cls-8" d="M51.46,10.9c6.81,0,12.33,5.4,12.33,12.07s-5.52,12.07-12.33,12.07-12.33-5.4-12.33-12.07,5.52-12.07,12.33-12.07Z"/>
        <path class="cls-5" d="M82.25,119.76s-29.09-24.52-42.28-33.66c-13.19-9.13-35.35-7.95-29.26,7.95,6.09,15.9,55.47,31.8,55.47,31.8,0,0-.28,17.87,2.41,21.33,2.69,3.45,1.72,6.42,1.72,10s1.77,4.81,1.77,4.81c0,0-.73,4.35.43,5.29,1.16.94,2.21,1,2.21,1,0,0,1.71.44,2.76-2.21,0,0,2.05.5,3.54-1.71,1.49-2.21,7.31-22.38,6.07-32.29-1.23-9.91-4.85-12.29-4.85-12.29Z"/>
        <path class="cls-11" d="M25.05,58.51s-1.09-3.62,6.14-5.13c7.23-1.51,16.31-2.38,13.43,9.46-2.88,11.84-22.72,29.98-38.51,29.87-15.8-.11,4.02-6.42,4.02-6.42,0,0-9.8-.81-8.24-4.04,1.56-3.23,12.12-6.01,12.12-6.01,0,0-7.68,1.33-6.67-2.22,1-3.56,13.79-7.45,13.79-7.45,0,0-6.9,1.67-7.45-1.89-.56-3.56,11.38-6.17,11.38-6.17Z"/>
        <path class="cls-6" d="M49.62,17c.93,0,1.68.76,1.68,1.68v.6c0,.93-.76,1.68-1.68,1.68s-1.68-.76-1.68-1.68v-.6c0-.93.76-1.68,1.68-1.68Z"/>
        <path class="cls-1" d="M144.13,48.16c-.06.22-.29.34-.51.28-.22-.06-.34-.29-.28-.51,0-.02,1.55-5.6,8.54-5.98.23-.01.42.16.43.39.01.23-.16.42-.39.43-1.65.09-2.96.49-4,1.03,5.66,1.95,3.53,6.24,3.53,6.26-.1.2-.34.29-.55.19-.2-.1-.29-.34-.19-.55,0-.01,1.87-3.77-3.72-5.33-2.25,1.59-2.85,3.78-2.85,3.79Z"/>
        <rect class="cls-9" x="107.7" y="39.73" width="4.78" height="5.7" rx="2.39" ry="2.39"/>
        <rect class="cls-9" x="125.49" y="39.73" width="4.78" height="5.7" rx="2.39" ry="2.39"/>
        <path class="cls-1" d="M118.01,44.66c0-.23.18-.41.41-.41s.41.18.41.41v3.86c0,.23-.18.41-.41.41-.05,0-.1,0-.15-.03-2.8-.86-4.54-.55-5.44.22-.7.6-.89,1.51-.67,2.33.23.84.88,1.59,1.84,1.88,1.27.37,3.08-.07,5.23-2.14.16-.16.42-.15.58.01.16.16.15.42-.01.58-2.4,2.32-4.51,2.78-6.03,2.34-1.25-.37-2.1-1.36-2.4-2.45-.3-1.11-.04-2.34.93-3.17,1.03-.88,2.88-1.29,5.71-.53v-3.32Z"/>
        <path class="cls-1" d="M115.78,57.52s14.9-4.43,18.3-3.24c3.41,1.19,2.55,11.66-6.81,11.83-9.36.17-11.07-4.6-11.49-8.6Z"/>
        <path class="cls-8" d="M107.55,151.88s29.87-42.69,38.43-53.95c8.55-11.27,24.06-10.4,27.41.82,3.35,11.22-39.28,67.69-39.28,67.69,0,0,.32,11.34-11.25,13.11-12.75,1.95-24.84-12.65-15.31-27.67Z"/>
        <path class="cls-5" d="M122.23,133.21c-7.38-17.44-14.19-45.57-14.19-45.57,0,0-9.21-1.41-13.68,1.28,0,0-2.54,59.13,11.66,77.22,13.47,17.16,21.55,9.71,22.61-3.47.74-9.17-2.87-21.11-6.4-29.46Z"/>
        <path class="cls-6" d="M129.07,27.9c2.24.6,3.69,2.46,3.24,4.16-.45,1.69-2.64,2.58-4.88,1.98-2.24-.6-3.69-2.46-3.24-4.16.45-1.69,2.64-2.58,4.88-1.98Z"/>
        <path class="cls-6" d="M109.09,27.9c-2.24.6-3.69,2.46-3.24,4.16.45,1.69,2.64,2.58,4.88,1.98,2.24-.6,3.69-2.46,3.24-4.16-.45-1.69-2.64-2.58-4.88-1.98Z"/>
        <path class="cls-5" d="M104.16,96.1l3.88-8.46s-2.31-10.4-9.76-17.41c-7.45-7.01-9.01-8.33-11.34-11.79-2.33-3.45-4.4,4.3-.16,8.25l4.24,3.95s-8.08.47-12.03-.88c-3.95-1.35-8.41-6.06-12.36-4.96,0,0-2.27-2.1-4.37-1.77-2.1.34-2.52,3.11-1.01,6.22,0,0-.5,3.42,2.17,5.83,2.67,2.42,8.72,6.01,17.9,8.04,9.19,2.03,13.04,5.79,13.04,5.79l9.8,7.18Z"/>
        <path class="cls-6" d="M122.67,129.74l22.05-30.75c5.24-7.78,14.83-15.71,23.52-7.7,2.01,1.86,3.28,4.62,3.2,8.61h-.74c.08-3.76-1.1-6.35-2.96-8.06-8.34-7.69-17.71.4-22.68,7.77l-21.78,30.57-.6-.43Z"/>
      </g>
    </g>
  </g>
</svg>