<?xml version="1.0" encoding="UTF-8"?>
<svg id="_Слой_2" data-name="Слой 2" xmlns="http://www.w3.org/2000/svg" viewBox="0 0 163.74 178.73">
  <defs>
    <style>
      .cls-1 {
        fill: #d16e5b;
      }

      .cls-1, .cls-2, .cls-3, .cls-4, .cls-5, .cls-6, .cls-7, .cls-8, .cls-9 {
        stroke-width: 0px;
      }

      .cls-1, .cls-2, .cls-3, .cls-4, .cls-6, .cls-7, .cls-8, .cls-9 {
        fill-rule: evenodd;
      }

      .cls-2 {
        fill: #d49983;
      }

      .cls-3 {
        fill: #eaaa7d;
      }

      .cls-4 {
        fill: #433a58;
      }

      .cls-5 {
        fill: #fff;
      }

      .cls-6 {
        fill: #a6a828;
      }

      .cls-7 {
        fill: #bc7e68;
      }

      .cls-8 {
        fill: #a36159;
      }

      .cls-9 {
        fill: #74711c;
      }
    </style>
  </defs>
  <g id="OBJECTS">
    <g>
      <circle class="cls-5" cx="81.87" cy="96.86" r="81.87"/>
      <g>
        <path class="cls-9" d="M79.09,82.85s-28.57-4.68-53.87,2.03C-.07,91.59-1.79,109.24,9.3,115.01c11.09,5.78,55.59,2.81,55.59,2.81l14.21-34.98Z"/>
        <path class="cls-4" d="M114.03,52.38s2.92-14.58,10.02-26.43c7.11-11.85-3.1-5.65-3.83-4.37,0,0-.73-15.03-5.22-16.49-4.48-1.46-1.46,8.75-1.46,8.75,0,0-9.37-15.03-28.44-13.78-17.05,1.12-24.52,17.23-14.67,23.16-.54,3.41-.4,8.65,4.55,11.26,4.62,2.44,6.35-2.61,6.99-7.05,8.07,4.25,7.39,10.45,7.39,10.45,0,0,14.15,18.03,24.65,14.48Z"/>
        <path class="cls-3" d="M108.31,55.93s-1.64,13.45-1.23,25.25l-19.81-.92s2.05-11.6,1.85-17.45c-.21-5.85,19.2-6.88,19.2-6.88Z"/>
        <path class="cls-1" d="M108.31,55.93s-.28,2.32-.59,5.88c-3.63,4.41-12.31,13.72-19.42,11.62.47-3.57.91-7.77.81-10.61-.21-5.85,19.2-6.88,19.2-6.88Z"/>
        <path class="cls-3" d="M75.74,21.08s-4.84,21.86-3.59,29.98c1.25,8.12,7.65,14.05,14.52,15.46,6.87,1.41,20.14-.62,23.42-8.12,0,0,8.25,2.74,10.81-4.44,2.57-7.19-6.16-11.6-10.37-5.75,0,0-1.13-2.26,1.64-15.19,0,0-19.09,1.54-23.41-13.24,0,0-7.29,3.9-13.03,1.31Z"/>
        <path class="cls-6" d="M83.79,79.64s-.31-4.21,1.23-4.41c1.54-.21,24.02-.82,24.74-.21.72.62-1.13,5.44-1.13,5.44,0,0,15.66,4.73,21.13,18.31,3.34,8.32,1.31,40.96-.77,65.04-13.32,9.4-29.58,14.92-47.12,14.92-11.8,0-23.02-2.5-33.15-6.99-1.28-22.02-3.13-56.3-2.85-65.35.41-13.63,11.36-21.27,11.36-21.27l26.57-5.47Z"/>
        <path class="cls-9" d="M131.54,117.65c-.02,13.6-1.28,31.47-2.55,46.16-13.32,9.4-29.58,14.92-47.12,14.92-10.93,0-21.36-2.15-30.9-6.04-2.06-19.96-5.04-50.81-5.13-63.17,5.3-1.29,11.93-.11,20.09,5.7,28.62,20.4,59.81-11.66,59.81-11.66l5.79,14.08Z"/>
        <path class="cls-8" d="M37.28,86.17s-7.33,20.05-1.44,43.66c5.89,23.62,23.9,38.63,49.77,34.86,25.87-3.77,24.98-25.16,18.15-33.42-6.83-8.27-19.59-26.41-19.59-26.41l-21.94-20.78-24.96,2.09Z"/>
        <path class="cls-4" d="M35.13,85.77s-3.74,6.88-3.03,10.42c.71,3.54,21.96,8.81,33.58,3.14,11.63-5.67,8.8-8.7,8.8-8.7l-7.72-9.04-31.63,4.19Z"/>
        <path class="cls-3" d="M18.17,90.85s57,7.18,65.12,7.65c.78.04,1.39.23,1.87.52h0s12.01,5.72,13.45,10.21c1.44,4.49-.84,19.4-1.11,20.11-.27.71-4.02,2.32-7.32,1.61-3.3-.71-10.14-12.32-13.91-16.61-9.56.64-56.53,5.73-65.75,3.68-9.84-2.19-19.52-25.45,7.65-27.17Z"/>
        <path class="cls-7" d="M15.33,82.9s8.74-16.18,17.37-20.32c8.62-4.13,2.5,6.33-2.47,18.88-3.61,9.1-5.53,11.63-8.12,12.48-4.85,1.59-11.5-3.72-6.77-11.04Z"/>
        <path class="cls-8" d="M63.33,56.37c-8.07-.35,4.53,14.18,7.29,18.05,2.76,3.87,10.2,12.13,15.69,8.79,11.33-6.91-12.49-26.37-22.98-26.83Z"/>
        <path class="cls-7" d="M35.65,61.9s16.66-6.14,23.04-6.38c6.38-.24,11.22,13.35,11.22,13.35,0,0,5.88,3.29,3.41,12.93-2.47,9.64-10.44,11.81-13.81,12.94-4.77,1.61-22.43-1.6-26.63-7.14-4.2-5.54,1.16-9.65,1.16-9.65,0,0-.45-12.6,1.6-16.05Z"/>
        <path class="cls-2" d="M45.8,58.48c2.84-.88,5.86-1.73,8.46-2.3-.41,3.35-.29,7.7,1.13,13.14,0,0,.9,6,5.65,7.49,4.27,1.34,12.03,3.76,6.37,14.16-2.92,2.24-6.09,3.16-7.91,3.77-2.27.77-7.58.86-12.74-.71-7.74-2.37,1.78-9.47,2.74-18.49.69-6.47-.68-12.78-3.71-17.07Z"/>
        <path class="cls-7" d="M68.7,104.17s-4.62-17.86,4.21-18.9c8.83-1.04,12.43,4.52,9.76,12.74-2.67,8.22-13.48,9.22-13.97,6.16Z"/>
        <path class="cls-7" d="M45.1,93c7.32,2.66,11.18,19.33,2.83,20.24-4.03.44-7.35-3.76-8.94-8.73-2.01-6.27-.35-13.86,6.11-11.51Z"/>
        <path class="cls-7" d="M51.24,155.97s-6.77-12.63,2.54-20.85c9.31-8.23,30.87,5.84,30.87,5.84,0,0-6.05-17.73,4.06-19.69,5.08-.98,8.29,8.31,9.64,18.21,1.33,9.79.85,20.16-1.44,21.76-4.59,3.2-19.14,7.69-45.67-5.26Z"/>
        <path class="cls-7" d="M104.96,148.12s-10.55-21.62-6.02-30.29c4.53-8.67,17.61,9.06,18.23,23.12.62,14.06-7.88,16.09-12.21,7.17Z"/>
        <path class="cls-3" d="M61.2,164.57v-5.04s.98-3.98-1.87-9.25c-2.86-5.27-3.93-9.29-4.2-13.21-.27-3.93-6.07-2.32-2.77,8.3,3.3,10.63-1.34,10.63-1.34,10.63l10.18,8.57Z"/>
        <path class="cls-3" d="M49.09,148.39l-1.44-2.94s-2.39-2.07-4.17-7.09c0,0,.26-4.24-1.75-4.32-2.01-.08-2.82,1.4-2.82,1.4,0,0-2.44,3-2.82,4.72-.38,1.73-.36,3-.36,3,0,0-1.51,2.72-1.31,5.42.19,2.7-.35,4.79.49,7.49.84,2.71,3.67,5.91,3.67,5.91l10.49-13.58Z"/>
        <path class="cls-3" d="M59.08,164.76l1.83-4.95s-11.14-10.6-13.23-14.29c-2.17-3.84-9.14,12.9-9.14,15.94s5.44,7.51,15.58,8.13l4.96-4.83Z"/>
        <path class="cls-3" d="M111.43,148.13s-3.53,16.57-5.43,17.38c-1.9.81-32.09-3.38-45.08-5.7l-6.79,9.78s9.54,4.37,20.86,8.86c2.27.19,4.57.29,6.89.29,19.13,0,36.73-6.57,50.67-17.57.81-3.13,1.32-5.28,1.32-5.28l-22.43-7.75Z"/>
        <path class="cls-4" d="M45.28,70.86c.84-.12,1.61.47,1.73,1.31l.08.55c.11.84-.47,1.61-1.31,1.73h0c-.84.12-1.61-.47-1.73-1.31l-.08-.55c-.12-.83.47-1.61,1.31-1.73Z"/>
        <path class="cls-4" d="M58.48,67.7h0c.76-.36,1.68-.02,2.04.74l.23.5c.36.76.02,1.68-.74,2.04-.76.36-1.68.02-2.04-.74l-.23-.5c-.36-.76-.02-1.68.74-2.04Z"/>
        <path class="cls-2" d="M47.5,58.8s-.33-9.64,4.72-10.83c5.05-1.2-1.6,6.71-1.6,6.71,0,0,5.98-4.39,8.57-4.05,2.59.33.66,3.92-5.52,6.05l-6.18,2.13Z"/>
        <path class="cls-4" d="M52.43,80.75s6.28-2.71,8.39-1.41c1.86,1.15-1.16,3.43-2.96,4.1.64,2.59,2.59,4.67,3.75,1.54l.63.14c-.28,1.4-2.66,3.17-3.89,1.3-.62,3.63-4.47.27-4.48.26l.42-.49c3.82,3.28,3.53-.03,3.08-2.6-.06.01-.11.02-.17.03-1.56.2-6.03-1.76-4.77-2.86Z"/>
        <path class="cls-4" d="M97.29,137.82c-.41-4.77-1.97-16.7-8.71-15.81-9.5,1.25-4.12,16.85-2.81,21.87l-.63.16c-1.89-7.18-22.18-13.48-29.44-10.25l-.26-.59s9.61-4.51,28.79,7.15c-1.32-5.63-4.88-18.18,4.26-19.38,7.24-.95,9,11.63,9.44,16.8l-.65.06Z"/>
        <path class="cls-8" d="M97.37,153.38s.69-24.33-5.81-26.62c-6.5-2.3-.69,18.28.46,25.78,1.15,7.5,5.35,3.6,5.35.84Z"/>
        <path class="cls-8" d="M113.26,140.1c-.59-3.42-4.8-22.18-10.3-20.56-4.48,1.32.86,26.24,4.49,28.22,3.63,1.98,6.73-6.73,5.81-7.66Z"/>
        <path class="cls-6" d="M105.46,154.77s18.29,7.07,26.99,6.47c1.42-1.12,2.8-2.28,4.15-3.49,4.34-11.57,1.44-49.78-5.07-60.73-7.57-12.74-14.18.69-17.28,10.39-3.1,9.71-8.78,47.36-8.78,47.36Z"/>
        <path class="cls-4" d="M109.38,121.75c-9.56-14.17-14.62-1.76-10.05,10.46.59,2.41,1.36,4.8,2.25,6.92l-.6.25c-.89-2.15-1.68-4.57-2.28-7.01-.91-3.73-2.98-14.8,1.69-16.74,3.94-1.64,7.94,2.68,9.56,5.83l-.57.3Z"/>
        <path class="cls-4" d="M44.08,107.77c-.06.5.41,4.06,2.25,5.12l-.44.47c-2.17-1.49-2.61-5.26-2.45-5.5l.64-.09h0ZM50.68,107.34s1.27,2.77,0,5.42l-.58-.28c1.14-2.38,0-4.87,0-4.88l.59-.26h0ZM47.89,107.24c.15.53,1.74,3.64.99,5.95l-.64-.12c.52-2.77-.92-5.52-.92-5.53l.57-.3Z"/>
        <path class="cls-4" d="M70.79,98.26c-.28.41-1.52,3.79-.39,5.57l-.61.21c-1.24-2.32.13-5.87.38-6l.61.22h0ZM76.83,100.94s-.16,3.04-2.52,4.8l-.39-.52c2.12-1.58,2.26-4.32,2.26-4.33l.64.04h0ZM74.41,99.56h-.65s0,3.11-1.75,5.33l.51.4c1.74-1.69,1.77-5.18,1.89-5.73Z"/>
        <g>
          <path class="cls-4" d="M82.41,34.2c1.11.12,1.93,1.12,1.81,2.23l-.13,1.21c-.12,1.11-1.12,1.92-2.23,1.81-1.11-.12-1.92-1.12-1.81-2.23l.13-1.21c.12-1.11,1.12-1.92,2.23-1.81Z"/>
          <path class="cls-4" d="M99.64,36c1.11.12,1.92,1.12,1.81,2.23l-.13,1.21c-.12,1.11-1.12,1.93-2.23,1.81-1.11-.12-1.92-1.12-1.81-2.23l.13-1.21c.12-1.11,1.12-1.92,2.23-1.81Z"/>
          <path class="cls-4" d="M81.43,26.91c1.71-.22,3.23.58,3.38,1.79.16,1.21-1.1,2.37-2.81,2.59-1.71.22-3.23-.58-3.38-1.79-.16-1.21,1.1-2.37,2.81-2.59Z"/>
          <path class="cls-4" d="M99.88,28.84c-1.63-.57-3.28-.1-3.68,1.05-.41,1.15.59,2.55,2.21,3.12,1.63.57,3.28.1,3.68-1.05.4-1.15-.59-2.55-2.21-3.12Z"/>
        </g>
        <path class="cls-1" d="M90.33,43.06c.15.09.2.29.11.44-.09.15-.29.2-.44.11-1.88-1.15-3.48-.98-4.57-.24-.84.58-1.39,1.5-1.51,2.42-.12.89.16,1.79.95,2.35,1.1.78,3.17.95,6.52-.29.17-.06.35.02.41.19.06.17-.02.35-.19.41-3.58,1.32-5.86,1.1-7.11.21-1.01-.71-1.37-1.84-1.21-2.96.15-1.09.79-2.18,1.79-2.87,1.28-.88,3.14-1.09,5.27.22Z"/>
        <path class="cls-1" d="M85.29,55.8c-.17-.06-.25-.25-.18-.42.06-.17.25-.25.42-.18.02,0,7.81,3.15,12.97-3.58-.32-.08-.64-.04-.8,0-.18.03-.34-.08-.38-.26-.03-.18.08-.34.26-.38.29-.06.94-.12,1.51.18.37.19.71.53.88,1.1.05.17-.04.35-.21.41-.17.05-.35-.04-.41-.21-.07-.22-.17-.39-.29-.51-5.46,7.23-13.75,3.88-13.78,3.87Z"/>
      </g>
    </g>
  </g>
</svg>