<?xml version="1.0" encoding="UTF-8"?>
<svg id="_Слой_2" data-name="Слой 2" xmlns="http://www.w3.org/2000/svg" viewBox="0 0 163.74 180.76">
  <defs>
    <style>
      .cls-1 {
        fill: #d16e5b;
      }

      .cls-1, .cls-2, .cls-3, .cls-4, .cls-5, .cls-6, .cls-7, .cls-8, .cls-9 {
        stroke-width: 0px;
      }

      .cls-1, .cls-2, .cls-3, .cls-4, .cls-5, .cls-6, .cls-8, .cls-9 {
        fill-rule: evenodd;
      }

      .cls-2 {
        fill: #d54c20;
      }

      .cls-3 {
        fill: #bf7b46;
      }

      .cls-4 {
        fill: #b82316;
      }

      .cls-5 {
        fill: #eaaa7d;
      }

      .cls-6 {
        fill: #433a58;
      }

      .cls-7, .cls-8 {
        fill: #fff;
      }

      .cls-9 {
        fill: #e8a327;
      }
    </style>
  </defs>
  <g id="OBJECTS">
    <circle class="cls-7" cx="81.87" cy="98.89" r="81.87" transform="translate(-22.03 174.29) rotate(-86.34)"/>
    <g>
      <path class="cls-6" d="M55.29,5.64C60.91-.12,95.94-5.98,104.64,12.72c8.7,18.7-1.45,77.2-1.45,77.2,0,0,16.89-13.87,25.06,1.63,8.17,15.5-15.62,37.51-54.65,34.1s-49.61-15.49-48.7-44c.91-28.51,22.13-73.6,30.39-76.01Z"/>
      <path class="cls-2" d="M32.88,89.38s-3.47,38.83-4.34,71.62c14.33,12.31,32.96,19.76,53.33,19.76,11.26,0,21.98-2.27,31.75-6.39-.25-10.46-.98-27.1-3.08-41.84-3.37-23.67-15.89-61.26-77.66-43.16Z"/>
      <path class="cls-4" d="M32.88,89.38s-2.14,24.01-3.48,50.21c10.72-1.71,22.28,2.79,29.58,24.14,1.88,5.49,3.4,10.47,4.63,14.99,5.87,1.34,11.99,2.05,18.27,2.05,11.26,0,21.98-2.27,31.75-6.39-.25-10.46-.98-27.1-3.08-41.84-3.37-23.67-15.89-61.25-77.66-43.16Z"/>
      <path class="cls-5" d="M74.07,62.08s-3.03,16.6-8.66,26.13l-14-3.46s5.05-12.13,6.21-24.69c1.15-12.56,16.46,2.02,16.46,2.02Z"/>
      <path class="cls-1" d="M74.07,62.08s-2.11,11.54-6.07,20.9c-7.91-4.02-10.75-19.8-10.75-19.8h0c.14-1.03.27-2.07.36-3.12,1.15-12.56,16.46,2.02,16.46,2.02Z"/>
      <path class="cls-5" d="M103.37,29.49s-1.33,34.67-11.14,40.3c-9.82,5.63-23.67,3.75-23.67,3.75,0,0-14.15-2.45-13.71-16.89,0,0-9.54,3.35-11.27-6.27-1.72-9.62,9.62-14.78,12.2-7.25,0,0,.45,3.55-.26,5.83,0,0,4.19-3.12,3.78-8.65-.41-5.53.99-7.1.99-7.1,0,0,13.27,3.91,24.66-7.48,0,0,11.29,9.52,18.42,3.74Z"/>
      <path class="cls-9" d="M111.76,95.33s1.83,5.98,12.12,16.6c10.29,10.63,24.78,33.64,5.72,48.22-19.06,14.58-35.37,5.63-35.37,5.63l-16.93-40.13s-3.34-26.12.84-33.59c4.19-7.46,33.61,3.26,33.61,3.26Z"/>
      <path class="cls-3" d="M111.76,95.33s-2.76.5-1.01,3.34c-8.7,18.28-38.48,10.36-31.22-9.12,2.99-8.02,32.23,5.78,32.23,5.78Z"/>
      <g>
        <path class="cls-9" d="M105.01,68.82c-3.7-1.01-9.98-2.33-13.87-2.38-.79-7.75-7.63-8.73-7.63-8.73-2.5,3.91-2.72,7.62-2.92,11.35-9.88,7.16-15.47,30.8,9.69,33.87,15.99,1.95,29.82,1.65,25.75-21.65h0c4.94-14.83-5.71-20.85-5.71-20.85-2.72,2.58-4.4,5.45-5.3,8.39Z"/>
        <path class="cls-3" d="M91.13,66.44c-.17-1.66-.61-3.01-1.21-4.1-1.8,6.22-6.65,4.7-9.1,3.45-.12,1.09-.18,2.18-.24,3.27,3.9-2.45,10.55-2.63,10.55-2.63Z"/>
        <path class="cls-3" d="M104.55,68.7c-.81-.22-1.73-.44-2.7-.66-.62,1.78-1.53,5.13.18,5.63,1.51.44,2.21-2.68,2.52-4.96h0ZM101.21,67.89c-.7,2.77-2.5,8.43-5.24,7.39-2.32-.89-1.27-5.35-.24-8.41,1.81.27,3.72.64,5.48,1.02h0ZM94.71,66.73c-1.16-.15-2.26-.25-3.23-.28-.41,1.95-.55,4.13.78,4.39,1.43.28,2.12-2.08,2.45-4.11Z"/>
        <path class="cls-6" d="M88.48,88.49c.25-.32-.45-1.12-1.28-1.01-.17.02-.28.18-.26.34,1.02,7.16-8.86,4.28-7.37.18.16-.23-.23-.78-.61-.19-1.41,3.76,5.16,6.84,7.73,3.97.52,4.26,9.19,4.84,8.75-.29-.11-.5-.62-.3-.62.13.23,5.24-11.02,2.83-6.34-3.14Z"/>
        <path class="cls-6" d="M92.03,86.12s-4.91-2.08-6.94-1.07c-2.03,1.02.32,2.99,2.08,3.79,1.76.8,5.94-1.14,4.86-2.72Z"/>
        <path class="cls-3" d="M88.37,96s-2.78.35-5.14-1.39c-2.36-1.74.87,6.62,5.14,1.39Z"/>
        <path class="cls-6" d="M99.3,79.74h0c-.93-.18-1.83.44-2.01,1.37l-.09.47c-.18.93.44,1.84,1.37,2.01.93.18,1.84-.44,2.01-1.37l.09-.47c.18-.93-.44-1.84-1.37-2.01Z"/>
        <path class="cls-6" d="M84.93,76.62c-.93-.18-1.84.44-2.01,1.37l-.09.47c-.18.93.44,1.84,1.37,2.01h0c.93.18,1.84-.44,2.01-1.37l.09-.47c.18-.93-.44-1.84-1.37-2.01Z"/>
        <path class="cls-3" d="M107.8,70.72s.51-5.45,3.24-8.43c-.51.05,9.02,3.47,4.55,16.79,0,0-2.22-6.17-7.79-8.36Z"/>
        <path class="cls-9" d="M111.01,73.58s-1.27-5.72.81-5.83c2.08-.12.4,4.82.4,4.82,0,0,1.73-2.43,2.83-1.27,1.1,1.16-2.95,3.35-2.95,3.35l-1.1-1.07Z"/>
        <path class="cls-3" d="M106.29,88.79c-1.54-.33-2.98.28-3.21,1.36-.23,1.08.84,2.22,2.38,2.55,1.54.33,2.98-.28,3.21-1.36.23-1.08-.84-2.22-2.38-2.55Z"/>
        <path class="cls-3" d="M76.19,81.33c-1.3-.28-2.51.24-2.71,1.15-.19.91.71,1.87,2.01,2.15,1.3.28,2.51-.24,2.71-1.15.19-.91-.71-1.87-2.01-2.15Z"/>
      </g>
      <g>
        <path class="cls-6" d="M74.82,40.57c1.37,0,2.49,1.12,2.49,2.49v.96c0,1.37-1.12,2.49-2.49,2.49s-2.49-1.12-2.49-2.49v-.96c0-1.37,1.12-2.49,2.49-2.49Z"/>
        <path class="cls-6" d="M93.34,40.57c1.37,0,2.49,1.12,2.49,2.49v.96c0,1.37-1.12,2.49-2.49,2.49s-2.49-1.12-2.49-2.49v-.96c0-1.37,1.12-2.49,2.49-2.49Z"/>
        <path class="cls-6" d="M94.58,28.26c2.33.63,3.84,2.56,3.37,4.33-.47,1.76-2.75,2.69-5.08,2.06s-3.84-2.56-3.37-4.33c.47-1.76,2.75-2.69,5.08-2.06Z"/>
        <path class="cls-6" d="M73.78,28.26c-2.33.63-3.84,2.56-3.37,4.33s2.75,2.69,5.08,2.06c2.33-.63,3.84-2.56,3.37-4.33-.47-1.76-2.75-2.69-5.08-2.06Z"/>
      </g>
      <path class="cls-1" d="M83.76,48.42c-.21.05-.42-.07-.47-.28-.05-.21.07-.42.28-.47,2.38-.62,4.09-.05,5.03.95.58.61.87,1.39.85,2.15-.02.77-.36,1.53-1.02,2.1-1.09.94-3.1,1.37-6.09.46-.2-.06-.32-.28-.26-.48s.28-.32.48-.26c2.69.82,4.44.48,5.36-.31.49-.42.74-.98.75-1.53.02-.56-.2-1.14-.64-1.6-.77-.81-2.22-1.26-4.28-.73Z"/>
      <path class="cls-1" d="M52.86,50.81c.01.21-.15.4-.36.41-.21.02-.4-.15-.41-.36,0-.01-.17-2.66-1.28-4.72-2.47.98-1.79,3.81-1.79,3.82.05.21-.08.42-.29.46-.21.05-.42-.08-.46-.29,0-.01-.82-3.4,2.13-4.66-.45-.63-1.01-1.15-1.72-1.44-.2-.08-.29-.31-.21-.5.08-.2.31-.29.5-.21,1,.41,1.75,1.19,2.3,2.1.03.03.05.07.06.11,1.33,2.27,1.52,5.26,1.52,5.27Z"/>
      <path class="cls-1" d="M69.16,53.65c.2.07.31.29.23.5-.07.2-.29.31-.5.23,0,0-.33-.13-.81-.13,1.04,9.17,10,8.93,10.02,8.93.21,0,.39.16.39.38,0,.21-.16.39-.38.39-.03,0-9.67.26-10.81-9.58-.26.08-.54.22-.81.43-.17.13-.41.1-.54-.07-.13-.17-.1-.41.07-.54,1.49-1.17,3.12-.55,3.12-.54Z"/>
      <path class="cls-3" d="M131.63,121.65c-2.19,1.96-5.29,3.74-9.63,4.53-11.66,2.12-4.27,23.34,15.73,8.34-1.29-4.53-3.53-8.94-6.1-12.87h0ZM138.84,140.66c.25,3.56-.25,7.1-1.78,10.46-2.17.77-4.38,1.46-6.57,2.01-13.6,3.4-16.02-8.5-2.19-9.71,3.71-.33,7.29-1.39,10.53-2.76h0ZM125.82,114.04c1.41,1.6,2.86,3.4,4.25,5.34-1.15.71-2.5,1.51-4.09,2.4-11.02,6.19-16.06-.32-6.61-3.88,2.08-.78,4.26-2.17,6.45-3.86Z"/>
      <path class="cls-8" d="M46.35,77.74c-19.48,4.2-17.21,20.86-6.52,39.95,10.69,19.09,29.26,57.56,45.94,61.73,1.76.44,3.39.73,4.9.87,3.16-.34,6.26-.85,9.29-1.54,6.58-3.42,10.7-12.12,16.54-25.68,9.12-21.18,11.61-40.71-2.86-53.92,0,0-9.03,19.64-25.45,28.04-8.2-15.17-22.89-53.55-41.86-49.46Z"/>
      <path class="cls-9" d="M120.53,160.53s-.3,10.29-8.73,14.58c3.1-1.22,6.11-2.62,9.01-4.19,3.18-5.35,2.25-10.38,2.25-10.38h-2.53ZM108.33,176.38c-3.5.86-7.99.84-13.77-.65-25.33-6.54-11.19-19.42-1.06-23.22,10.13-3.8,1.07-26.31-16.68-13.51-14.15,10.2-14.02,33.96,2.53,41.72.84.03,1.68.04,2.52.04,9.26,0,18.16-1.54,26.46-4.37Z"/>
      <path class="cls-6" d="M42.94,79.84s11.23-8.8,21.45,5.61c8.69,12.25,17.62,27.5,23.87,41.24,13.29-6.49,23.85-24.54,23.88-24.6l.38.24c-.03.05-9.52,16.89-22.19,24.1-.99.56-1.39,1.76-.95,2.8.61,1.45,1.09,2.73,1.43,3.8l-.71.22c-4.19-13.27-17.57-35.05-25.8-46.66-9.77-13.78-20.88-6.2-20.91-6.18l-.45-.59Z"/>
    </g>
  </g>
</svg>