<svg width="12" height="12" viewBox="0 0 12 12" fill="none" xmlns="http://www.w3.org/2000/svg">
<path d="M5.72853 7.965L1.74603 3.78525C1.67954 3.71551 1.64246 3.62286 1.64246 3.5265C1.64246 3.43015 1.67954 3.3375 1.74603 3.26775L1.75053 3.26325C1.78276 3.22933 1.82155 3.20231 1.86455 3.18385C1.90755 3.16539 1.95386 3.15587 2.00065 3.15587C2.04745 3.15587 2.09375 3.16539 2.13675 3.18385C2.17975 3.20231 2.21855 3.22933 2.25078 3.26325L6.00078 7.19925L9.74928 3.26325C9.78151 3.22933 9.8203 3.20231 9.8633 3.18385C9.9063 3.16539 9.95261 3.15587 9.9994 3.15587C10.0462 3.15587 10.0925 3.16539 10.1355 3.18385C10.1785 3.20231 10.2173 3.22933 10.2495 3.26325L10.254 3.26775C10.3205 3.3375 10.3576 3.43015 10.3576 3.5265C10.3576 3.62286 10.3205 3.71551 10.254 3.78525L6.27153 7.965C6.23651 8.00176 6.19438 8.03103 6.14771 8.05102C6.10104 8.07102 6.0508 8.08133 6.00003 8.08133C5.94926 8.08133 5.89901 8.07102 5.85234 8.05102C5.80567 8.03103 5.76355 8.00176 5.72853 7.965Z" fill="black" fill-opacity="0.23"/>
</svg>
