<svg width="12" height="12" viewBox="0 0 12 12" fill="none" xmlns="http://www.w3.org/2000/svg">
<path d="M11.222 0.777988C10.8306 0.386578 10.2998 0.166687 9.74621 0.166687C9.19267 0.166687 8.6618 0.386578 8.27038 0.777988L1.29838 7.74999C1.06142 7.98696 0.894833 8.285 0.817128 8.61099L0.178378 11.2955C0.161083 11.3682 0.162705 11.4441 0.183088 11.516C0.203471 11.5879 0.241937 11.6534 0.294816 11.7063C0.347695 11.7591 0.413225 11.7975 0.485155 11.8178C0.557085 11.8381 0.633018 11.8396 0.705711 11.8222L3.38963 11.1829C3.71582 11.1053 4.01408 10.9387 4.25121 10.7017L11.222 3.73082C11.6135 3.3394 11.8333 2.80853 11.8333 2.25499C11.8333 1.70144 11.6135 1.17057 11.222 0.779154M8.88871 1.39749C9.00132 1.28488 9.13501 1.19555 9.28214 1.13461C9.42927 1.07367 9.58696 1.0423 9.74621 1.0423C9.90546 1.0423 10.0632 1.07367 10.2103 1.13461C10.3574 1.19555 10.4911 1.28488 10.6037 1.39749C10.7163 1.5101 10.8056 1.64378 10.8666 1.79091C10.9275 1.93804 10.9589 2.09574 10.9589 2.25499C10.9589 2.41424 10.9275 2.57193 10.8666 2.71906C10.8056 2.86619 10.7163 2.99988 10.6037 3.11249L10.0834 3.63107L8.36838 1.91665L8.88871 1.39749ZM7.75004 2.53615L9.46504 4.24999L3.63171 10.0833C3.50921 10.2058 3.35521 10.2916 3.18663 10.3318L1.19396 10.8067L1.66821 8.81399C1.70846 8.64482 1.79479 8.49082 1.91729 8.36832L7.75004 2.53615Z" fill="white"/>
</svg>
