<svg width="91" height="42" viewBox="0 0 91 42" fill="none" xmlns="http://www.w3.org/2000/svg">
<path d="M14.08 0.599998H19.2V23H14.08V14.104H7.04V23H1.92V0.599998H7.04V9.176H14.08V0.599998ZM36.261 21.016C34.6183 22.6373 32.613 23.448 30.245 23.448C27.877 23.448 25.8717 22.6373 24.229 21.016C22.5863 19.3733 21.765 17.368 21.765 15C21.765 12.632 22.5863 10.6373 24.229 9.016C25.8717 7.37333 27.877 6.552 30.245 6.552C32.613 6.552 34.6183 7.37333 36.261 9.016C37.9037 10.6373 38.725 12.632 38.725 15C38.725 17.368 37.9037 19.3733 36.261 21.016ZM27.621 17.72C28.325 18.424 29.1997 18.776 30.245 18.776C31.2903 18.776 32.165 18.424 32.869 17.72C33.573 17.016 33.925 16.1093 33.925 15C33.925 13.8907 33.573 12.984 32.869 12.28C32.165 11.576 31.2903 11.224 30.245 11.224C29.1997 11.224 28.325 11.576 27.621 12.28C26.917 12.984 26.565 13.8907 26.565 15C26.565 16.1093 26.917 17.016 27.621 17.72ZM53.056 14.808C54.4853 15.576 55.2 16.7813 55.2 18.424C55.2 19.7893 54.72 20.8987 53.76 21.752C52.8213 22.584 51.488 23 49.76 23H41.12V7H49.12C50.848 7 52.1813 7.42667 53.12 8.28C54.08 9.112 54.56 10.2107 54.56 11.576C54.56 12.984 54.0587 14.0613 53.056 14.808ZM48.608 10.84H45.6V13.08H48.608C49.5467 13.08 50.016 12.7173 50.016 11.992C50.016 11.224 49.5467 10.84 48.608 10.84ZM49.12 19.032C50.0587 19.032 50.528 18.6373 50.528 17.848C50.528 17.1013 50.0587 16.728 49.12 16.728H45.6V19.032H49.12ZM68.8848 7H73.6848V23H68.8848V21.496C67.7541 22.7973 66.1648 23.448 64.1168 23.448C62.0048 23.448 60.2021 22.6373 58.7088 21.016C57.2154 19.3733 56.4688 17.368 56.4688 15C56.4688 12.632 57.2154 10.6373 58.7088 9.016C60.2021 7.37333 62.0048 6.552 64.1168 6.552C66.1648 6.552 67.7541 7.20267 68.8848 8.504V7ZM62.3248 17.848C63.0288 18.552 63.9461 18.904 65.0768 18.904C66.2074 18.904 67.1248 18.552 67.8288 17.848C68.5328 17.144 68.8848 16.1947 68.8848 15C68.8848 13.8053 68.5328 12.856 67.8288 12.152C67.1248 11.448 66.2074 11.096 65.0768 11.096C63.9461 11.096 63.0288 11.448 62.3248 12.152C61.6208 12.856 61.2688 13.8053 61.2688 15C61.2688 16.1947 61.6208 17.144 62.3248 17.848ZM90.1663 7V23H85.4943V18.392H84.5023L81.2063 23H75.7663L79.5103 17.72C78.5503 17.2293 77.7929 16.5253 77.2383 15.608C76.6836 14.6907 76.4063 13.72 76.4063 12.696C76.4063 11.1813 76.9396 9.85867 78.0063 8.728C79.0729 7.576 80.5236 7 82.3583 7H90.1663ZM82.7743 11.224C82.2623 11.224 81.8463 11.3733 81.5263 11.672C81.2276 11.9493 81.0783 12.344 81.0783 12.856C81.0783 13.3467 81.2276 13.7307 81.5263 14.008C81.8463 14.2853 82.2623 14.424 82.7743 14.424H85.4943V11.224H82.7743ZM24.32 41H19.008L14.656 34.056V41H9.984V34.056L5.632 41H0.32L5.632 33L0.64 25H5.952L9.984 31.848V25H14.656V31.848L18.688 25H24L19.008 33L24.32 41ZM37.585 25H41.105V41H36.433V33L29.585 41H26.065V25H30.737V33L37.585 25ZM54.0355 32.872C55.5928 33.704 56.3715 34.9627 56.3715 36.648C56.3715 38.0347 55.7848 39.1867 54.6115 40.104C53.4595 41 51.8382 41.448 49.7475 41.448C46.4835 41.448 44.2435 40.1787 43.0275 37.64L46.8995 35.336C47.3688 36.6373 48.3395 37.288 49.8115 37.288C51.0702 37.288 51.6995 36.872 51.6995 36.04C51.6995 35.2933 51.1982 34.92 50.1955 34.92H47.9555V30.888H49.6835C50.6862 30.888 51.1875 30.5253 51.1875 29.8C51.1875 29.032 50.6862 28.648 49.6835 28.648C48.4888 28.648 47.6142 29.2667 47.0595 30.504L43.1875 28.296C44.4888 25.8 46.6222 24.552 49.5875 24.552C51.4648 24.552 52.9582 25.0213 54.0675 25.96C55.1768 26.8987 55.7315 28.0293 55.7315 29.352C55.7315 30.9093 55.1662 32.0827 54.0355 32.872ZM68.6963 25H73.4963V41H68.6963V35.24H63.2563V41H58.4563V25H63.2563V30.76H68.6963V25ZM84.1868 29.8C86.1068 29.8 87.6321 30.312 88.7628 31.336C89.8934 32.36 90.4588 33.7147 90.4588 35.4C90.4588 37.0853 89.8934 38.44 88.7628 39.464C87.6321 40.488 86.1068 41 84.1868 41H76.6988V25H81.4988V29.8H84.1868ZM84.2188 36.84C84.6881 36.84 85.0614 36.712 85.3388 36.456C85.6374 36.1787 85.7868 35.8267 85.7868 35.4C85.7868 34.9733 85.6374 34.632 85.3388 34.376C85.0614 34.0987 84.6881 33.96 84.2188 33.96H81.4988V36.84H84.2188Z" fill="#FBD345"/>
</svg>
