<?xml version="1.0" encoding="UTF-8"?>
<svg id="_Слой_2" data-name="Слой 2" xmlns="http://www.w3.org/2000/svg" viewBox="0 0 78.35 101.63">
  <defs>
    <style>
      .cls-1 {
        fill: #7fadc6;
      }

      .cls-1, .cls-2, .cls-3 {
        stroke-width: 0px;
      }

      .cls-2 {
        fill: #5b341a;
      }

      .cls-3 {
        fill: #186e8c;
        opacity: .2;
      }

      .cls-4 {
        fill: none;
        stroke: #fff;
        stroke-linejoin: round;
      }
    </style>
  </defs>
  <g id="OBJECTS">
    <g>
      <path class="cls-2" d="M33.56,101.63c-7.49,0-13.83-.41-19.02-1.24-5.19-.83-9.76-2.62-13.71-5.37v-23.84c8.36,6.66,16.88,9.99,25.56,9.99,4.04,0,7.59-.82,10.65-2.45,3.06-1.63,4.58-4.19,4.58-7.68,0-4.04-1.67-6.96-5-8.75-3.33-1.79-7.32-2.69-11.96-2.69-1.56,0-3.29.21-5.17.62-1.79.46-2.99.74-3.58.83h-1.38v-11.58l23.57-20.05v-.69h-15.23c-2.2,0-3.9.34-5.1,1.03-1.15.69-2,1.68-2.55,2.96-.55,1.29-1.15,3.24-1.79,5.86l-13.44-.14V7.23h73.66v18.26l-19.5,16.19c4.5.32,8.57,1.77,12.2,4.34,3.67,2.53,6.59,5.73,8.75,9.61,2.16,3.88,3.24,7.94,3.24,12.16,0,7.53-1.89,13.8-5.68,18.81-3.79,5.01-9.04,8.76-15.75,11.27-6.71,2.5-14.49,3.76-23.36,3.76Z"/>
      <path class="cls-1" d="M33.56,94.4c-7.49,0-13.83-.41-19.02-1.24-5.19-.83-9.76-2.62-13.71-5.37v-23.84c8.36,6.66,16.88,9.99,25.56,9.99,4.04,0,7.59-.81,10.65-2.45,3.06-1.63,4.58-4.19,4.58-7.68,0-4.04-1.67-6.96-5-8.75-3.33-1.79-7.32-2.69-11.96-2.69-1.56,0-3.29.21-5.17.62-1.79.46-2.99.74-3.58.83h-1.38v-11.58l23.57-20.05v-.69h-15.23c-2.2,0-3.9.34-5.1,1.03-1.15.69-2,1.68-2.55,2.96-.55,1.29-1.15,3.24-1.79,5.86l-13.44-.14V0h73.66v18.26l-19.5,16.19c4.5.32,8.57,1.77,12.2,4.34,3.67,2.53,6.59,5.73,8.75,9.61,2.16,3.88,3.24,7.94,3.24,12.16,0,7.53-1.89,13.8-5.68,18.81-3.79,5.01-9.04,8.76-15.75,11.27-6.71,2.5-14.49,3.76-23.36,3.76Z"/>
      <path class="cls-4" d="M4.86,4.61h63.81l-.94,10.35-22.52,21.46s27.98-.56,28.36,25.79c.38,26.35-34.13,28.33-43.39,28.42-10.16.1-25.32-3.95-25.32-3.95v-14.26s34.92,14.96,40-6.49c5.08-21.46-25.13-15.95-25.13-15.95l.14-7.06,28.52-25.27h-28.94s-7.34-.56-9.18,7.76h-5.41V4.61Z"/>
      <path class="cls-3" d="M45.21,81.42c-5.85,7.01-13.7,10.8-21.73,12.69-3.29-.21-6.27-.53-8.94-.95-5.19-.83-9.76-2.62-13.71-5.38v-23.84c8.36,6.66,16.88,9.99,25.56,9.99,4.04,0,7.59-.81,10.64-2.44,3.06-1.63,4.59-4.2,4.59-7.69,0-4.04-1.67-6.96-5-8.75-3.33-1.79-7.31-2.68-11.95-2.68-1.57,0-3.29.2-5.17.62-1.79.46-2.99.73-3.58.82h-1.38v-11.57l23.56-20.06v-.68h-15.23c-2.2,0-3.9.34-5.09,1.03-1.15.69-2,1.68-2.55,2.96-.56,1.29-1.15,3.24-1.8,5.86L0,31.21V0h10.28c-.59,3.84,1.1,10.56,20.13,10.55,26.63,0,17.14,20.9,10.92,28.8-6.22,7.91,22.74,19.49,3.88,42.07Z"/>
    </g>
  </g>
</svg>